<?xml version="1.0" encoding="UTF-8" standalone="no"?>
<!-- Created with Inkscape (http://www.inkscape.org/) -->

<svg
   width="210mm"
   height="297mm"
   viewBox="0 0 210 297"
   version="1.1"
   id="svg5"
   xml:space="preserve"
   inkscape:export-filename="bitmapa2.svg"
   inkscape:export-xdpi="96"
   inkscape:export-ydpi="96"
   xmlns:inkscape="http://www.inkscape.org/namespaces/inkscape"
   xmlns:sodipodi="http://sodipodi.sourceforge.net/DTD/sodipodi-0.dtd"
   xmlns="http://www.w3.org/2000/svg"
   xmlns:svg="http://www.w3.org/2000/svg"><sodipodi:namedview
     id="namedview7"
     pagecolor="#ffffff"
     bordercolor="#000000"
     borderopacity="0.25"
     inkscape:showpageshadow="2"
     inkscape:pageopacity="0.0"
     inkscape:pagecheckerboard="0"
     inkscape:deskcolor="#d1d1d1"
     inkscape:document-units="mm"
     showgrid="true"
     showborder="false"><inkscape:grid
       type="xygrid"
       id="grid5718"
       spacingx="26.458333"
       spacingy="26.458333" /></sodipodi:namedview><defs
     id="defs2" /><g
     inkscape:label="Warstwa 1"
     inkscape:groupmode="layer"
     id="layer1"><path
       style="fill:#704672;fill-opacity:1;stroke-width:0.405104"
       d="m 94.645868,199.39613 -14.934994,-8.59175 0.06271,-28.55495 c 0.03449,-15.70522 0.192535,-28.67911 0.351219,-28.83086 0.158681,-0.15175 6.897407,-4.04329 14.974945,-8.64786 l 14.686432,-8.37196 3.13818,1.68245 c 1.726,0.92534 8.65181,4.81465 15.39068,8.64292 l 12.2525,6.96048 -5.3e-4,17.41951 -5.2e-4,17.4195 -15.11276,8.60848 c -8.31213,4.73467 -15.25482,8.60848 -15.42832,8.60848 -0.1735,0 -2.75999,-1.37984 -5.74776,-3.06632 l -5.432312,-3.06632 v -17.50375 -17.50375 l 3.342112,-1.69414 c 1.83817,-0.93178 4.36983,-2.28074 5.62593,-2.99769 l 2.28381,-1.30353 3.59021,2.04169 c 1.97461,1.12293 3.59021,2.25599 3.59021,2.51791 0,0.26192 -2.18757,1.70818 -4.86126,3.21391 l -4.86126,2.7377 -0.10752,12.94451 c -0.0981,11.80978 -0.0469,12.98889 0.58381,13.45088 0.38023,0.27851 1.15985,0.50638 1.73249,0.50638 0.81394,0 13.84482,-6.92879 21.19152,-11.26798 l 1.11953,-0.66123 -0.10677,-12.95962 -0.10677,-12.95961 -5.06381,-3.00097 c -10.03156,-5.945 -15.95067,-9.02287 -17.06301,-8.87257 -0.58376,0.0789 -5.73365,2.7737 -11.444212,5.9885 l -10.382842,5.84508 0.0027,24.10929 0.0027,24.10929 8.023268,4.56248 c 4.412796,2.50936 9.368606,5.23358 11.012906,6.05382 l 2.98964,1.49134 4.73051,-2.43457 c 2.60178,-1.339 12.04626,-6.60568 20.98772,-11.70371 l 16.25743,-9.26915 V 151.10002 127.15161 L 132.57056,116.1785 c -10.63906,-6.03521 -20.12763,-11.36422 -21.08571,-11.84224 l -1.74197,-0.86912 -20.463262,11.66534 c -11.254798,6.41593 -20.665345,12.02993 -20.912328,12.47554 -0.31102,0.56116 -0.506722,9.30917 -0.636648,28.45862 -0.103175,15.20662 -0.299686,27.64748 -0.43669,27.64634 -0.137004,-10e-4 -1.798627,-0.88922 -3.692491,-1.97352 l -3.44339,-1.97147 -0.09657,-28.71316 -0.09657,-28.71317 2.932306,-1.56577 c 1.61277,-0.86117 12.833357,-7.22005 24.934642,-14.13084 C 107.158,95.608302 109.94631,94.131042 110.75574,94.499842 c 0.50683,0.23093 11.3165,6.354188 24.02148,13.607248 12.70499,7.25305 23.5813,13.40668 24.16959,13.67472 l 1.06962,0.48735 v 28.47425 28.47425 l -1.31659,0.98667 c -1.85247,1.38825 -48.13135,27.82066 -48.67379,27.80028 -0.24485,-0.009 -7.16593,-3.88302 -15.380176,-8.60848 z"
       id="path19929" /></g></svg>
