<?xml version="1.0" encoding="UTF-8" standalone="no"?>
<!-- Created with Inkscape (http://www.inkscape.org/) -->

<svg
   width="210mm"
   height="297mm"
   viewBox="0 0 210 297"
   version="1.1"
   id="svg5"
   xml:space="preserve"
   inkscape:export-filename="bitmapa.svg"
   inkscape:export-xdpi="96"
   inkscape:export-ydpi="96"
   xmlns:inkscape="http://www.inkscape.org/namespaces/inkscape"
   xmlns:sodipodi="http://sodipodi.sourceforge.net/DTD/sodipodi-0.dtd"
   xmlns="http://www.w3.org/2000/svg"
   xmlns:svg="http://www.w3.org/2000/svg"><sodipodi:namedview
     id="namedview7"
     pagecolor="#ffffff"
     bordercolor="#000000"
     borderopacity="0.25"
     inkscape:showpageshadow="2"
     inkscape:pageopacity="0.0"
     inkscape:pagecheckerboard="0"
     inkscape:deskcolor="#d1d1d1"
     inkscape:document-units="mm"
     showgrid="true"
     showborder="false"><inkscape:grid
       type="xygrid"
       id="grid5718"
       spacingx="26.458333"
       spacingy="26.458333" /></sodipodi:namedview><defs
     id="defs2" /><g
     inkscape:label="Warstwa 1"
     inkscape:groupmode="layer"
     id="layer1"><path
       style="fill:#ff8c00;fill-opacity:1;stroke-width:0.378098"
       d="m 99.736817,208.0445 c -1.76761,-1.06581 -3.46905,-2.03495 -3.78098,-2.15365 -0.31193,-0.1187 -2.20658,-1.204 -4.21034,-2.41178 -2.00376,-1.20778 -3.73982,-2.19597 -3.85792,-2.19597 -0.1181,0 -1.90461,-1.02087 -3.97003,-2.26859 -2.065414,-1.24772 -3.851926,-2.26859 -3.970022,-2.26859 -0.1181,0 -1.92408,-1.03262 -4.01329,-2.29472 l -3.798565,-2.29472 v -28.70456 -28.70456 l 1.417868,-0.89319 c 0.779825,-0.49125 2.608873,-1.54456 4.06455,-2.34068 1.455677,-0.79613 3.713083,-2.09776 5.016459,-2.89254 1.30337,-0.79477 2.44985,-1.44503 2.54774,-1.44503 0.0979,0 1.89722,-1.02087 3.99854,-2.26859 2.10132,-1.24772 3.88492,-2.26859 3.96356,-2.26859 0.0786,0 1.4665,-0.78335 3.08413,-1.74078 1.61763,-0.95744 3.834413,-2.23863 4.926163,-2.84711 l 1.98502,-1.10632 1.98501,1.10632 c 1.09176,0.60848 3.30853,1.88967 4.92616,2.84711 1.61763,0.95743 3.00549,1.74078 3.08414,1.74078 0.0786,0 1.86224,1.02087 3.96355,2.26859 2.10132,1.24772 3.90066,2.26859 3.99855,2.26859 0.0979,0 1.24436,0.65026 2.54774,1.44503 1.30337,0.79478 3.56078,2.09641 5.01645,2.89254 1.45568,0.79612 3.28473,1.84943 4.06455,2.34068 l 1.41787,0.89319 v 17.57206 17.57207 l -1.41787,0.89319 c -0.77982,0.49125 -2.60887,1.54456 -4.06455,2.34068 -1.45567,0.79613 -3.71308,2.09776 -5.01645,2.89254 -1.30338,0.79476 -2.44986,1.44503 -2.54774,1.44503 -0.0979,0 -1.89723,1.02087 -3.99855,2.26859 -2.10131,1.24772 -3.88491,2.26859 -3.96355,2.26859 -0.0787,0 -1.46651,0.78335 -3.08414,1.74078 -1.61763,0.95743 -3.8344,2.23863 -4.92616,2.84711 l -1.98501,1.10632 -1.98502,-1.10632 c -1.09175,-0.60848 -3.261093,-1.84961 -4.820743,-2.75808 -1.55966,-0.90847 -3.30363,-1.89072 -3.87551,-2.18278 l -1.03977,-0.53101 V 163.40006 145.684 l 0.88731,-0.33736 c 0.48802,-0.18554 1.9902,-1.0124 3.33819,-1.83746 1.348,-0.82506 3.58362,-2.11171 4.968073,-2.85922 l 2.51717,-1.35911 1.76747,0.93977 c 0.97211,0.51688 2.9974,1.65687 4.50064,2.53332 l 2.73317,1.59354 -2.88857,1.73224 c -1.58872,0.95273 -4.2072,2.45833 -5.81884,3.34579 l -2.93026,1.61354 v 12.36923 12.36922 l 1.09811,0.64867 c 0.60396,0.35676 1.29138,0.64866 1.52759,0.64866 0.23622,0 4.63371,-2.40519 9.77221,-5.34486 5.13849,-2.93968 9.98076,-5.67916 10.76059,-6.08774 l 1.41786,-0.74288 v -12.63997 c 0,-11.69173 -0.0496,-12.65853 -0.66167,-12.88742 -0.36392,-0.1361 -2.02282,-1.04677 -3.68645,-2.02372 -1.66363,-0.97695 -3.66283,-2.13633 -4.44265,-2.57642 -2.68887,-1.5174 -4.26752,-2.41128 -8.50468,-4.8156 -2.33809,-1.32671 -4.43404,-2.41221 -4.65766,-2.41221 -0.22363,0 -4.095543,2.10749 -8.604263,4.6833 -11.29226,6.45123 -11.09734,6.34094 -12.26221,6.93815 l -1.039769,0.53307 v 23.71095 23.71095 l 1.039769,0.59924 c 0.57187,0.32958 1.97556,1.11421 3.11931,1.74362 1.14374,0.6294 3.40305,1.92773 5.02068,2.88516 1.61764,0.95743 3.00549,1.74079 3.08414,1.74079 0.0786,0 1.81771,0.98157 3.86461,2.18127 6.117903,3.58575 5.423363,3.41805 8.153783,1.96865 1.30549,-0.69299 3.44001,-1.91022 4.74338,-2.70495 1.30338,-0.79473 2.43798,-1.44497 2.52135,-1.44497 0.0834,0 1.88075,-1.02087 3.99418,-2.26859 2.11343,-1.24772 3.89994,-2.26859 3.97003,-2.26859 0.0701,0 1.8566,-1.02086 3.97003,-2.26858 2.11342,-1.24773 3.90858,-2.26859 3.98923,-2.26859 0.0806,0 1.55555,-0.83094 3.27755,-1.84654 1.72199,-1.01559 3.81148,-2.22587 4.6433,-2.6895 0.83181,-0.46363 3.00115,-1.70958 4.82074,-2.76877 l 3.30836,-1.9258 v -23.47486 -23.47485 l -3.30836,-1.9258 c -1.81959,-1.0592 -3.98893,-2.30514 -4.82074,-2.76877 -0.83182,-0.46363 -2.92131,-1.67391 -4.6433,-2.6895 -1.722,-1.0156 -3.19493,-1.84654 -3.27318,-1.84654 -0.0783,0 -1.86153,-1.02086 -3.96285,-2.26859 -2.10132,-1.24772 -3.90066,-2.26858 -3.99854,-2.26858 -0.0979,0 -1.24437,-0.65047 -2.54775,-1.44548 -1.30337,-0.79502 -3.30556,-1.95908 -4.4493,-2.58681 -1.14375,-0.62773 -3.92133,-2.18914 -6.17242,-3.46979 -2.25108,-1.28066 -4.24424,-2.32847 -4.42923,-2.32847 -0.36988,0 -2.48477,1.14917 -6.727573,3.65557 -1.52485,0.90079 -2.8296,1.6378 -2.89945,1.6378 -0.0699,0 -1.85617,1.02087 -3.9696,2.26859 -2.11342,1.24772 -3.91168,2.26859 -3.99612,2.26859 -0.0845,0 -1.9847,1.07253 -4.222797,2.3834 -4.35352,2.54989 -9.605637,5.56318 -11.79863,6.76921 -0.739738,0.40682 -2.833738,1.61375 -4.653333,2.68208 l -3.308358,1.9424 v 28.68858 28.68858 L 59.752966,185.174 c -0.987782,-0.58138 -2.561613,-1.46496 -3.497405,-1.96353 -0.935794,-0.49856 -2.169337,-1.18168 -2.74121,-1.51804 l -1.03977,-0.61156 V 152.29058 123.5003 l 2.363112,-1.25606 c 1.29971,-0.69082 3.857853,-2.16075 5.684761,-3.26651 1.826908,-1.10575 3.420208,-2.01045 3.540667,-2.01045 0.12046,0 1.908903,-1.02087 3.97432,-2.26859 2.065417,-1.24772 3.851928,-2.26859 3.970028,-2.26859 0.118097,0 1.904611,-1.02086 3.970028,-2.26859 2.065417,-1.24772 3.851928,-2.26858 3.970028,-2.26858 0.118096,0 1.904608,-1.02087 3.970022,-2.26859 2.06542,-1.24772 3.85193,-2.26859 3.97003,-2.26859 0.1181,0 1.90461,-1.02086 3.97003,-2.26859 2.06542,-1.247723 3.84556,-2.268583 3.95587,-2.268583 0.11032,0 1.80385,-0.95676 3.7634,-2.12612 l 3.562823,-2.12613 3.56282,2.12613 c 1.95955,1.16936 3.65307,2.12612 3.76339,2.12612 0.11031,0 1.89046,1.02086 3.95588,2.268583 2.06541,1.24773 3.85192,2.26859 3.97002,2.26859 0.1181,0 1.90461,1.02087 3.97003,2.26859 2.06542,1.24772 3.85193,2.26859 3.97003,2.26859 0.1181,0 1.90461,1.02086 3.97002,2.26858 2.06542,1.24773 3.85193,2.26859 3.97003,2.26859 0.1181,0 1.88155,0.98989 3.91877,2.19975 4.45728,2.64708 9.50964,5.54745 11.83314,6.79295 0.93579,0.50163 2.16934,1.18726 2.74121,1.52362 l 1.03977,0.61156 v 28.75201 c 0,26.97417 -0.0409,28.77744 -0.66167,29.16319 -0.36392,0.22615 -1.76761,1.00797 -3.11931,1.73739 -1.3517,0.72941 -3.6091,2.03154 -5.01645,2.89361 -1.40736,0.86206 -2.66037,1.56739 -2.78447,1.56739 -0.12411,0 -1.91554,1.02087 -3.98096,2.26859 -2.06542,1.24772 -3.85193,2.26859 -3.97003,2.26859 -0.1181,0 -1.90461,1.02086 -3.97003,2.26859 -2.06541,1.24772 -3.85192,2.26858 -3.97002,2.26858 -0.1181,0 -1.90461,1.02087 -3.97003,2.26859 -2.06542,1.24772 -3.85193,2.26859 -3.97003,2.26859 -0.1181,0 -1.90461,1.02086 -3.97002,2.26858 -2.06542,1.24773 -3.85137,2.26859 -3.96878,2.26859 -0.11742,0 -1.6132,0.84547 -3.32396,1.87882 -1.71077,1.03335 -3.35076,1.96981 -3.64444,2.08103 -0.29368,0.11121 -1.98019,-0.66982 -3.747793,-1.73562 z"
       id="path1151" /></g></svg>
