<?xml version="1.0" encoding="UTF-8" standalone="no"?>
<!-- Created with Inkscape (http://www.inkscape.org/) -->

<svg
   width="210mm"
   height="297mm"
   viewBox="0 0 210 297"
   version="1.1"
   id="svg5"
   xml:space="preserve"
   inkscape:export-filename="bitmapa.svg"
   inkscape:export-xdpi="96"
   inkscape:export-ydpi="96"
   xmlns:inkscape="http://www.inkscape.org/namespaces/inkscape"
   xmlns:sodipodi="http://sodipodi.sourceforge.net/DTD/sodipodi-0.dtd"
   xmlns="http://www.w3.org/2000/svg"
   xmlns:svg="http://www.w3.org/2000/svg"><sodipodi:namedview
     id="namedview7"
     pagecolor="#ffffff"
     bordercolor="#000000"
     borderopacity="0.25"
     inkscape:showpageshadow="2"
     inkscape:pageopacity="0.0"
     inkscape:pagecheckerboard="0"
     inkscape:deskcolor="#d1d1d1"
     inkscape:document-units="mm"
     showgrid="true"
     showborder="false"><inkscape:grid
       type="xygrid"
       id="grid5718"
       spacingx="26.458333"
       spacingy="26.458333" /></sodipodi:namedview><defs
     id="defs2" /><g
     inkscape:label="Warstwa 1"
     inkscape:groupmode="layer"
     id="layer1"><path
       style="fill:#00a372;fill-opacity:1;stroke-width:0.405104"
       d="m 93.952211,193.19893 c -6.109549,-3.47337 -12.978024,-7.41301 -15.26328,-8.75478 l -4.155011,-2.43956 0.103962,-28.77821 0.103963,-28.77821 14.786327,-8.47413 c 8.132479,-4.66078 14.995668,-8.5652 15.251518,-8.67651 0.36834,-0.16024 11.97102,6.30139 30.01639,16.71636 l 1.31402,0.7584 v 17.41951 17.41951 l -1.31402,0.7584 c -8.86858,5.11855 -29.49144,16.86366 -29.61035,16.86366 -0.0855,0 -2.68641,-1.43793 -5.779737,-3.1954 l -5.624221,-3.1954 -0.08626,-17.56622 -0.08626,-17.56623 1.706684,-0.83108 c 0.938676,-0.4571 3.544978,-1.8761 5.791784,-3.15333 l 4.0851,-2.32224 4.11827,2.31669 c 2.26505,1.27419 4.11827,2.42124 4.11827,2.549 0,0.12777 -2.45653,1.59803 -5.45896,3.26726 l -5.45896,3.03496 0.0913,12.74543 0.0913,12.74543 1.13277,0.62303 c 1.0898,0.5994 1.25881,0.55587 4.45615,-1.14791 1.82786,-0.97401 6.83261,-3.76468 11.12166,-6.20148 l 7.79827,-4.43055 -0.006,-12.43334 c -0.003,-6.83833 -0.14014,-12.63533 -0.30383,-12.88221 -0.30677,-0.46265 -15.60768,-9.31526 -19.49931,-11.28166 -1.87551,-0.94767 -2.33745,-1.03784 -3.24084,-0.63254 -0.57946,0.25996 -5.565418,3.03087 -11.079907,6.15757 l -10.026345,5.6849 v 23.80488 23.80488 l 10.431449,5.98507 c 6.985263,4.00781 10.832953,5.98809 11.646763,5.99421 0.86025,0.006 7.16265,-3.39296 21.57184,-11.63555 l 20.35652,-11.64469 V 142.19362 118.56039 L 127.91186,107.62953 C 117.38419,101.61755 107.90737,96.280759 106.85225,95.769989 l -1.9184,-0.92867 -1.72755,0.95446 c -2.53625,1.40126 -38.362565,21.863481 -39.249358,22.417291 -0.723572,0.45188 -0.759561,1.66158 -0.859171,28.87883 l -0.103968,28.40719 -4.051049,-2.29686 -4.051046,-2.29686 -0.0961,-28.73801 -0.09611,-28.738 3.539495,-1.9222 c 3.951174,-2.14577 4.599448,-2.51297 24.8075,-14.051681 7.909671,-4.51638 16.053435,-9.19585 18.097257,-10.39881 2.04381,-1.20296 3.82301,-2.1872 3.95378,-2.1872 0.13076,0 4.7478,2.58338 10.26009,5.74086 5.51228,3.15747 11.20726,6.40483 12.65551,7.21636 2.74527,1.5383 5.92322,3.361251 14.80999,8.495411 2.90952,1.68092 6.96127,3.9677 9.00389,5.08173 l 3.71386,2.02553 0.004,27.95223 c 0.002,15.37373 -0.10303,28.35197 -0.23404,28.84054 -0.16665,0.62144 -1.8992,1.82668 -5.76722,4.01194 -3.04095,1.718 -7.16968,4.07262 -9.17495,5.23249 -2.00527,1.15988 -5.56006,3.20135 -7.89954,4.5366 -2.33948,1.33526 -6.16772,3.52991 -8.5072,4.87701 -9.02093,5.19434 -18.61471,10.63397 -18.75494,10.63397 -0.0807,0 -5.14539,-2.84184 -11.254942,-6.31521 z"
       id="path19666" /></g></svg>
